<svg xmlns="http://www.w3.org/2000/svg" width="829" height="239" viewBox="0 0 829 239" fill="none"><path fill-rule="evenodd" clip-rule="evenodd" d="M38.718 187.66C37.2647 187.66 35.8191 187.632 34.4014 187.584C33.8029 138.625 33.7877 89.66 34.3558 40.7005C35.6949 40.65 37.1532 40.6222 38.7484 40.6222C57.5361 40.6222 65.8749 56.4578 65.8749 115.419C65.8749 172.294 57.7187 187.66 38.718 187.66ZM48.7573 8.10938C34.5726 8.10938 12.8176 8.92288 0.705046 8.92288H0C0.95866 77.8184 0.95866 146.714 0 215.609H0.628962C19.4775 215.609 38.9399 217.464 47.304 217.464C76.3733 217.464 99.9644 191.709 99.9644 114.704C99.9644 38.6159 79.4445 8.10938 48.7573 8.10938Z" fill="#DA1E28"></path><path fill-rule="evenodd" clip-rule="evenodd" d="M214.536 8.92342H179.89C180.78 60.0026 180.955 112.315 179.89 163.389C179.502 181.93 178.09 187.721 167.587 187.721C156.558 187.721 155.127 181.92 154.752 163.389C153.715 112.315 153.864 60.0001 154.752 8.9209H120.296C120.791 52.9842 120.499 101.302 119.241 162.133C118.645 193.097 120.121 219.154 167.608 219.154C215.038 219.154 215.865 192.935 215.454 162.143C214.582 101.332 214.29 52.9867 214.536 8.92342Z" fill="#DA1E28"></path><path fill-rule="evenodd" clip-rule="evenodd" d="M272.647 183.238C271.977 125.136 272.129 67.0333 273.106 8.93066H238.305C239.261 77.8236 239.261 146.722 238.305 215.617H315.545C307.587 203.212 303.04 180.763 303.04 180.763C289.869 182.397 282.715 183.238 272.647 183.238Z" fill="#DA1E28"></path><path fill-rule="evenodd" clip-rule="evenodd" d="M573.822 59.1964C573.822 45.4224 580.279 38.0654 591.387 38.0654C602.518 38.0654 611.821 42.6989 618.826 47.4486L619.774 14.9689C613.091 8.77919 600.264 5.90918 587.72 5.90918C566.231 5.90918 543.824 17.3109 543.824 59.2394C543.824 85.5697 552.812 99.0482 568.534 119.462C581.047 136.088 593.7 152.674 593.7 168.868C593.7 179.088 589.173 187.071 576.338 187.071C561.068 187.071 547.89 166.013 547.89 166.013C547.89 166.013 545.787 183.529 536.789 196.98C536.789 196.98 553.038 219.313 579.68 219.313C609.424 219.313 624.801 200.272 624.801 166.814C624.801 135.757 606.804 117.771 593.697 100.771C581.991 85.7592 573.822 71.4521 573.822 59.1964Z" fill="#DA1E28"></path><path fill-rule="evenodd" clip-rule="evenodd" d="M686.08 188.638C671.832 188.638 668.844 165.994 668.844 112.921C668.844 59.8388 671.662 37.3714 686.08 37.3714C700.343 37.3714 703.15 60.3441 703.15 112.919C703.15 165.494 700.597 188.638 686.08 188.638ZM686.115 5.9541C648.439 5.9541 637.117 38.0977 637.117 112.86C637.117 187.621 648.439 220.063 686.115 220.063C723.792 220.063 734.87 187.621 734.87 112.86C734.87 38.0977 723.792 5.9541 686.115 5.9541Z" fill="#DA1E28"></path><path fill-rule="evenodd" clip-rule="evenodd" d="M788.892 8.92383H754.094C755.047 77.8193 755.047 146.715 754.094 215.61H827.933L828.075 180.758C814.905 182.39 801.639 183.214 788.433 183.232C787.766 125.129 787.916 67.0264 788.892 8.92383Z" fill="#DA1E28"></path><path fill-rule="evenodd" clip-rule="evenodd" d="M470.933 44.6495C481.189 34.7131 489.987 38.0328 491.884 45.0841C496.424 61.8418 477.702 94.4629 450.7 121.157C450.7 75.5855 463.959 51.3925 470.933 44.6495ZM478.528 188.625C466.397 188.625 458.32 174.368 458.32 157.793C497.323 122.309 535.139 62.1196 524.087 30.7794C520.168 19.6657 510.196 5.89919 491.812 5.89919C476.296 5.89919 462.398 11.6468 451.576 22.4776C431.779 42.3276 419.727 73.4405 419.626 126.574C419.605 135.77 420.673 146.118 422.897 156.474C402.989 181.422 383.339 197.783 369.707 205.33C359.758 193.718 347.145 155.678 347.145 117.479C347.145 68.0567 361.462 31.9289 373.544 31.9289C382.203 31.9289 382.304 44.2275 382.304 44.2275C382.304 70.0298 369.978 85.8806 369.902 85.9715L398.086 98.6466C399.035 97.5855 414.358 73.8018 414.358 44.2275C414.358 22.7883 400.054 0 373.544 0C330.962 0 312.57 59.3608 312.57 116.559C312.57 203.488 353.285 238.984 363.24 238.984C365.228 238.984 381.939 237.307 411.381 210.966C419.03 204.122 426.742 196.646 434.335 188.767C443.709 206.335 457.746 219.303 477.014 219.303C506.572 219.303 527.965 191.5 532.606 159.44L505.964 147.151C505.066 168.277 490.797 188.625 478.528 188.625Z" fill="#DA1E28"></path><path fill-rule="evenodd" clip-rule="evenodd" d="M814.063 17.9901H817.018C817.355 17.9901 817.614 18.0254 817.796 18.0962C817.979 18.1669 818.126 18.2907 818.238 18.4726C818.352 18.657 818.407 18.9147 818.407 19.2508V20.0087C818.407 20.3725 818.367 20.6782 818.283 20.9333C818.197 21.1835 818.057 21.3679 817.86 21.4791C817.662 21.5927 817.38 21.6483 817.018 21.6483H814.063V17.9901ZM821.085 22.2519C821.466 21.5117 821.656 20.5921 821.656 19.5007C821.656 17.9596 821.232 16.7898 820.39 15.9915C819.546 15.1931 818.366 14.7939 816.847 14.7939H810.816V28.9141H814.063V24.46H816.391L818.237 28.9141H821.613L821.74 28.7474L819.64 23.7956C820.246 23.4343 820.74 22.9341 821.085 22.2519Z" fill="#DA1E28"></path><mask id="mask0_313_305" style="mask-type:luminance" maskUnits="userSpaceOnUse" x="803" y="7" width="26" height="30"><path fill-rule="evenodd" clip-rule="evenodd" d="M803.656 7.55371H828.211V36.1275H803.656V7.55371Z" fill="white"></path></mask><g mask="url(#mask0_313_305)"><path fill-rule="evenodd" clip-rule="evenodd" d="M825.268 22.2621C825.268 24.642 824.923 26.6455 824.236 28.27C823.546 29.8944 822.498 31.1374 821.093 31.9914C819.683 32.8453 817.971 33.2723 815.945 33.2723C813.919 33.2723 812.212 32.8529 810.819 32.0091C809.427 31.1703 808.372 29.9399 807.654 28.3129C806.937 26.6884 806.579 24.6723 806.579 22.2621V21.2541C806.579 18.9273 806.931 16.9617 807.637 15.3473C808.339 13.738 809.386 12.5127 810.776 11.6714C812.169 10.8326 813.893 10.4107 815.945 10.4107C817.971 10.4107 819.673 10.8326 821.048 11.6714C822.427 12.5127 823.475 13.7304 824.192 15.3271C824.91 16.9238 825.268 18.8995 825.268 21.2541V22.2621ZM826.565 13.6904C825.467 11.5606 823.983 10.0069 822.114 9.02409C820.243 8.04384 818.183 7.55371 815.934 7.55371C813.656 7.55371 811.597 8.04384 809.756 9.02409C807.909 10.0069 806.433 11.5606 805.325 13.6904C804.212 15.8202 803.656 18.5083 803.656 21.7572C803.656 24.8673 804.148 27.4872 805.135 29.6144C806.119 31.7442 807.539 33.3636 809.396 34.4702C811.252 35.5768 813.431 36.1275 815.934 36.1275C818.409 36.1275 820.575 35.5894 822.431 34.5106C824.288 33.4344 825.716 31.8149 826.712 29.6599C827.712 27.5023 828.211 24.8673 828.211 21.7572C828.211 18.5083 827.661 15.8202 826.565 13.6904Z" fill="#DA1E28"></path></g></svg>