<svg width="254" height="164" viewBox="0 0 254 164" fill="none" xmlns="http://www.w3.org/2000/svg">
<path d="M253.863 142.387C248.967 140.735 230.752 134.322 208.641 134.322C185.297 134.322 165.045 140.852 144.941 148.932C125.06 156.92 104.499 164.008 79.6445 164.008C50.847 164.008 29.2314 152.942 13.4419 145.404C8.30534 142.953 3.92799 140.65 0 138.998V135.431C4.55554 137.176 9.63017 139.72 15.6345 142.589C30.9746 149.909 51.9936 159.944 79.6368 159.944C103.507 159.944 123.604 151.871 143.035 144.062C162.706 136.16 183.043 127.986 207.37 127.986C228.513 127.986 246.882 133.182 253.855 135.439V142.395L253.863 142.387ZM56.6189 35.6414C66.4505 35.6414 74.4227 27.6616 74.4227 17.8207C74.4227 7.97976 66.4505 0 56.6189 0C46.7873 0 38.8151 7.97976 38.8151 17.8207C38.8151 27.6616 46.7873 35.6414 56.6189 35.6414Z" fill="#98D801"/>
<path d="M51.5443 114.051H61.678V42.7681H51.5443V114.051ZM40.6357 114.051V42.7681H30.7422C30.7422 42.7681 23.8701 86.7072 20.3217 86.7072C17.1065 86.7072 9.90133 42.7681 9.90133 42.7681H0V114.051H10.1493V82.5816C10.1493 82.5816 12.4735 99.844 20.314 99.844C28.1545 99.844 30.4787 82.5816 30.4787 82.5816V114.051H40.6357ZM142.376 42.3416C131.189 42.3416 122.085 51.4536 122.085 62.6516V93.9968C122.085 105.195 131.189 114.477 142.376 114.477C153.564 114.477 162.667 105.195 162.667 93.9968V62.6516C162.667 51.4536 153.564 42.3416 142.376 42.3416ZM152.533 94.0045C152.533 99.6113 147.978 104.171 142.376 104.171C136.775 104.171 132.219 99.6113 132.219 94.0045V62.6594C132.219 57.0526 136.775 52.4927 142.376 52.4927C147.978 52.4927 152.533 57.0526 152.533 62.6594V94.0045ZM238.647 42.7759H228.281L213.072 114.059H223.446L226.723 98.6497H240.189L243.481 114.059H253.855L238.647 42.7759ZM228.893 88.4986L233.464 67.0796L238.027 88.4986H228.893ZM190.442 104.342C184.84 104.342 180.285 99.7819 180.285 94.1752H170.151C170.151 105.373 179.254 114.485 190.442 114.485C201.629 114.485 210.733 105.373 210.733 94.1752C210.733 82.1784 202.117 76.6957 190.442 72.826C184.825 70.9648 180.285 68.2661 180.285 62.6594C180.285 57.0526 184.84 52.4927 190.442 52.4927C196.043 52.4927 200.599 57.0526 200.599 62.6594H210.733C210.733 51.4613 201.629 42.3493 190.442 42.3493C179.254 42.3493 170.167 51.4613 170.151 62.6671C170.136 74.6406 178.782 79.2393 190.442 83.233C196.036 85.1485 200.599 88.5761 200.599 94.1829C200.599 99.7897 196.043 104.35 190.442 104.35V104.342ZM103.073 114.059H113.222V42.7681H103.329C103.329 42.7681 96.4566 86.7072 92.9083 86.7072C89.6853 86.7072 82.4878 42.7681 82.4878 42.7681H72.5943V114.051H82.7435V82.5816C82.7435 82.5816 85.0678 99.844 92.9083 99.844C100.749 99.844 103.073 82.5816 103.073 82.5816V114.059Z" fill="#211FB4"/>
</svg>
