<svg xmlns="http://www.w3.org/2000/svg" width="80" height="80" fill="none" viewBox="0 0 80 80"><g clip-path="url(#a)"><path fill="url(#b)" fill-rule="evenodd" d="M65.46 36.29a6.735 6.735 0 0 1 6.223 4.145 6.69 6.69 0 0 1-1.465 7.316 6.75 6.75 0 0 1-7.34 1.449 6.71 6.71 0 0 1-4.151-6.207c0-1.781.71-3.486 1.97-4.742a6.74 6.74 0 0 1 4.763-1.96M34.353 6.37a.833.833 0 0 1-.19 1.166.84.84 0 0 1-1.17-.19L31.715 5.6a.86.86 0 0 1-.246-.672.85.85 0 0 1 1.071-.739.85.85 0 0 1 .545.47l1.268 1.746zm-4.549 10.753h-.003a.85.85 0 0 1 1.138.511.85.85 0 0 1-.067.68.85.85 0 0 1-.548.405l-2.058.672h-.003a.85.85 0 0 1-1.093-.539.843.843 0 0 1 .583-1.068zm18.878 1.596a.85.85 0 0 1-.548-.406.85.85 0 0 1-.067-.679.847.847 0 0 1 1.138-.511l2.051.662h-.003c.428.154.657.62.52 1.05a.85.85 0 0 1-1.033.556zM46.03 7.346a.84.84 0 0 1-1.359-.987l1.268-1.701a.846.846 0 0 1 1.37.987zM39.512 20.69l4.9 3.027c.466.29 1.06.27 1.506-.052.443-.319.646-.879.516-1.407l-1.366-5.594 4.404-3.71v.003c.418-.353.583-.924.411-1.442a1.34 1.34 0 0 0-1.184-.924l-5.752-.43-2.185-5.324A1.35 1.35 0 0 0 39.512 4c-.548 0-1.043.329-1.25.837l-2.185 5.324-5.753.43a1.34 1.34 0 0 0-1.183.924 1.34 1.34 0 0 0 .41 1.442l4.405 3.71-1.366 5.59c-.13.53.073 1.09.516 1.408.446.322 1.04.343 1.507.052zm0 56.31c-2.789 0-12.352-.683-17.083-3.109-2.5-1.28-2.634-1.953-2.634-4.4a19.66 19.66 0 0 1 4.253-12.142 19.78 19.78 0 0 1 10.86-6.945l1.6 2.965-1.544 13.12a.84.84 0 0 0 .358.787l3.688 2.597v.004a.9.9 0 0 0 .986 0l3.678-2.59a.9.9 0 0 0 .386-.81L42.48 53.37l1.6-2.965h-.003A19.77 19.77 0 0 1 54.94 57.35a19.68 19.68 0 0 1 4.254 12.143c0 2.447-.134 3.118-2.635 4.4C51.864 76.345 42.301 77 39.512 77m-2.83-26.929 1.239 2.293h3.182l1.24-2.293a20.5 20.5 0 0 0-5.662 0m4.179 3.98h-2.698L36.7 66.23l2.813 1.981 2.813-1.98zm-1.35-23.676a9.105 9.105 0 0 1 8.416 5.593 9.05 9.05 0 0 1-1.974 9.889 9.12 9.12 0 0 1-9.918 1.963 9.07 9.07 0 0 1-5.612-8.386c0-2.402.959-4.705 2.662-6.406a9.1 9.1 0 0 1 6.427-2.653M13.566 70.699a43 43 0 0 0 4.604-.224 21.23 21.23 0 0 1 5.753-15.52 14.56 14.56 0 0 0-10.301-4.334A14.56 14.56 0 0 0 3.278 54.85 14.46 14.46 0 0 0-1 65.144c0 1.792.098 2.303 1.953 3.262C4.423 70.198 11.506 70.8 13.54 70.7zm51.895 0c2.058.098 9.146-.5 12.587-2.293C79.898 67.447 80 66.953 80 65.144c0-3.854-1.542-7.55-4.285-10.274a14.576 14.576 0 0 0-20.612.084 21.23 21.23 0 0 1 5.753 15.52q2.297.236 4.604.225M13.565 36.29a6.73 6.73 0 0 1 6.227 4.137 6.69 6.69 0 0 1-1.458 7.32A6.745 6.745 0 0 1 10.99 49.2a6.71 6.71 0 0 1-4.15-6.206c.003-3.7 3.012-6.7 6.725-6.703" clip-rule="evenodd"/></g><defs><linearGradient id="b" x1="39.5" x2="39.5" y1="4" y2="77" gradientUnits="userSpaceOnUse"><stop stop-color="#e2bc6f"/><stop offset="1" stop-color="#d3a952"/></linearGradient><clipPath id="a"><path fill="#fff" d="M0 0h80v80H0z"/></clipPath></defs></svg>