<svg xmlns="http://www.w3.org/2000/svg" width="80" height="80" fill="none" viewBox="0 0 100 100">
    <circle cx="45" cy="21.333" r="11.667" fill="#cda553" />
    <rect width="15.844" height="33.333" x=".817" y="57.402" fill="#cda553" rx="5"
        transform="rotate(-9.442 .817 57.402)" />
    <path fill="#000"
        d="M99.505 64.83c-1.116-2.632-4.223-4.812-8.348-3.39-6.844 2.341-20.37 5.523-25.742 6.75.113-1.163-.032-2.568-.841-3.828-1.343-2.083-4.029-3.132-7.977-3.132-6.666 0-7.928-.291-19.933-3.037l-1.391-.323c-7.281-1.663-11.019-.969-14.32-.355-.452.08-.921.178-1.39.242-.227.032-.486.08-.729.13a5.98 5.98 0 0 0-6.698-4.652l-7.038 1.05C1.83 54.769-.42 57.822.066 61.068l3.77 25.146a6 6 0 0 0 6.795 5.022l7.038-1.05c2.864-.435 4.951-2.874 5.064-5.7 1.505-.049 2.945 0 4.24.21 1.925.306 4.514 1.227 7.523 2.31 5.55 1.986 12.118 4.327 18.526 4.327 2.2 0 4.4-.274 6.52-.936 8.673-2.73 22.312-10.353 31.34-15.392 2.67-1.486 4.984-2.778 6.424-3.537 2.443-1.243 3.349-3.973 2.2-6.638M17.248 87.33l-7.038 1.05c-1.667.241-3.236-.905-3.495-2.569l-3.77-25.145c-.259-1.664.906-3.23 2.573-3.489l7.038-1.05c.145-.016.307-.032.453-.032 1.488 0 2.799 1.098 3.025 2.616l3.64 24.307.05.29.08.517a3.08 3.08 0 0 1-2.556 3.505M95.994 68.9c-1.489.775-3.705 2.003-6.52 3.57-8.932 4.99-22.41 12.515-30.79 15.164-7.362 2.31-16.13-.823-23.186-3.359-3.155-1.13-5.873-2.1-8.057-2.438-1.23-.194-2.54-.291-3.915-.291-.356 0-.729 0-1.1.016l-3.107-20.801c.259-.049.502-.097.728-.13.485-.08.955-.161 1.424-.258 3.171-.581 6.44-1.195 13.138.34l1.392.322c12.037 2.762 13.574 3.101 20.58 3.101 2.848 0 4.773.614 5.517 1.777.955 1.453.017 3.585.017 3.601s0 .016-.017.032l-.016.017c-.048.096-1.1 2.503-4.546 2.503-5.162 0-7.847-.5-10.695-1.034-2.006-.371-4.077-.759-7.006-.953a1.47 1.47 0 0 0-1.553 1.357 1.46 1.46 0 0 0 1.36 1.55c2.75.178 4.643.533 6.649.905 2.848.533 5.792 1.082 11.229 1.082 4.126 0 6.1-2.342 6.86-3.586 3.511-.79 19.723-4.49 27.683-7.219 2.394-.823 4.093.307 4.724 1.793.437.953.469 2.293-.793 2.94m-38.88-38.566a1.445 1.445 0 0 0 .81 1.89l7.118 2.858v20.188l-19.205-7.397v-9.868c0-.807-.647-1.453-1.456-1.453-.81 0-1.456.646-1.456 1.453v10.87c0 .597.372 1.146.938 1.356L65.98 58.76h.016c.162.064.34.096.502.096.065 0 .146-.032.21-.032.081-.016.162-.016.243-.048.016 0 .049 0 .065-.017l22.117-8.527c.566-.21.938-.759.938-1.356V25.57c0-.226-.064-.436-.162-.63l-.048-.096a1.6 1.6 0 0 0-.405-.469c-.016 0-.016-.016-.016-.032-.016-.016-.048-.016-.064-.032-.081-.049-.146-.097-.227-.13l-22.117-8.527c-.34-.129-.712-.129-1.036 0l-5.274 2.003c-.744.29-1.133 1.13-.842 1.873a1.447 1.447 0 0 0 1.877.84l4.757-1.809 18.073 6.977-8.042 3.133-10.03 3.86-7.508-3.004a1.47 1.47 0 0 0-1.893.808M67.97 35.1l11.148-4.295 8.058-3.101v20.172L67.97 55.288zM38.75 47.472c0 .807-.647 1.453-1.456 1.453H20.548a1.45 1.45 0 0 1-1.456-1.453c0-.808.647-1.454 1.456-1.454h16.746a1.46 1.46 0 0 1 1.456 1.454m-25.257-9.868c0-.808.647-1.453 1.456-1.453h22.344c.809 0 1.456.645 1.456 1.453 0 .807-.647 1.453-1.456 1.453H14.949a1.45 1.45 0 0 1-1.456-1.453m7.313-9.868c0-.807.647-1.453 1.456-1.453h5.663c.81 0 1.456.646 1.456 1.453 0 .808-.647 1.454-1.456 1.454h-5.663a1.45 1.45 0 0 1-1.456-1.454m23.445 6.67c.226.032.469.032.712.032 3.721 0 7.28-1.582 9.756-4.312 2.249-2.422 3.479-5.587 3.479-8.914 0-.194 0-.372-.017-.437C57.956 13.604 52.164 8 44.963 8c-7.313 0-13.25 5.927-13.25 13.21A13.187 13.187 0 0 0 44.25 34.406m.712-23.498c5.614 0 10.128 4.377 10.322 10.094v.21c0 2.6-.954 5.055-2.718 6.96a10.3 10.3 0 0 1-7.604 3.36c-.097 0-.21 0-.308-.016-.064-.017-.13-.017-.194-.017a10.275 10.275 0 0 1-9.837-10.287c0-5.685 4.643-10.304 10.339-10.304m-1.456 10.304v-7.17c0-.808.647-1.454 1.456-1.454s1.456.646 1.456 1.453v5.717h4.142c.809 0 1.456.646 1.456 1.454s-.647 1.453-1.456 1.453h-5.598a1.45 1.45 0 0 1-1.456-1.453" />
</svg>