<svg xmlns="http://www.w3.org/2000/svg" width="80" height="80" fill="none" viewBox="0 0 80 80"><g clip-path="url(#a)"><path fill="url(#b)" fill-rule="evenodd" d="M18.221 76.705v-9.41a2.463 2.463 0 0 0-2.453-2.468H8.076c-1.35 0-2.444 1.105-2.444 2.468v9.41zm40.026-71.3A76.3 76.3 0 0 1 38.122 23.69 83.9 83.9 0 0 1 9.208 35.112a.49.49 0 0 0-.449.532c.02.271.259.474.527.45a79.75 79.75 0 0 0 32.619-6.264 81.2 81.2 0 0 0 25.121-16.343l2.532 2.313a.81.81 0 0 0 .874.144.83.83 0 0 0 .493-.742L71.152.83h-.003a.82.82 0 0 0-.255-.607.8.8 0 0 0-.615-.22L56.089 1.62a.81.81 0 0 0-.68.57.8.8 0 0 0 .227.906l2.61 2.354zM.819 79.997V80A.824.824 0 0 1 0 79.173c0-.457.367-.827.82-.827h78.36c.453 0 .82.37.82.827a.824.824 0 0 1-.82.827zm73.552-3.295-12.644.003v-48.21c0-1.369 1.098-2.478 2.454-2.478h7.675c.65 0 1.271.261 1.73.728.459.463.717 1.095.714 1.75v48.21zm-18.735.003V41.428a2.476 2.476 0 0 0-2.454-2.478h-7.691c-1.353.006-2.447 1.112-2.454 2.477v35.278zm-18.707 0V54.362a2.47 2.47 0 0 0-2.454-2.478h-7.692a2.45 2.45 0 0 0-1.743.721 2.5 2.5 0 0 0-.728 1.757v22.343z" clip-rule="evenodd"/></g><defs><linearGradient id="b" x1="40" x2="40" y1="0" y2="80" gradientUnits="userSpaceOnUse"><stop stop-color="#e2bc6f"/><stop offset="1" stop-color="#d3a952"/></linearGradient><clipPath id="a"><path fill="#fff" d="M0 0h80v80H0z"/></clipPath></defs></svg>