<svg xmlns="http://www.w3.org/2000/svg" width="80" height="80" fill="none" viewBox="0 0 80 80"><g clip-path="url(#a)"><path fill="url(#b)" fill-rule="evenodd" d="M36.5 7.036a36.4 36.4 0 0 1 20.338 6.214l.257 4.66-7.182 7.17a22.82 22.82 0 0 0-21.594-2.84 22.82 22.82 0 0 0-7.959 37.44 22.83 22.83 0 0 0 20.883 6.187 22.81 22.81 0 0 0 16.562-14.144 22.81 22.81 0 0 0-2.84-21.591l7.171-7.181 4.66.257a36.48 36.48 0 0 1-16.319 54.005A36.5 36.5 0 0 1 19.305 75.7a36.477 36.477 0 0 1-11.02-55.33A36.49 36.49 0 0 1 36.499 7.037m2.663 36.485 32.43-32.385c.434-.333.704-.836.739-1.38a1.9 1.9 0 0 0-.551-1.47 1.89 1.89 0 0 0-1.467-.552 1.9 1.9 0 0 0-1.384.739L36.5 40.83a1.9 1.9 0 0 0-.743 1.384 1.902 1.902 0 0 0 3.406 1.28zm24.583-22.168 6.488.354c.433.024.856-.135 1.162-.444l8.399-8.398v.004a.76.76 0 0 0 .16-.78.76.76 0 0 0-.622-.5l-5.822-.33a3.5 3.5 0 0 1-.739 1.076zm5.06-14.806L68.457.715a.76.76 0 0 0-.489-.666.77.77 0 0 0-.808.17l-8.378 8.395a1.52 1.52 0 0 0-.444 1.2l.354 6.487 9.037-9.026a3.5 3.5 0 0 1 1.075-.738zm-32.307 27.82a9.14 9.14 0 0 0-8.736 6.477 9.14 9.14 0 0 0 14.502 9.767 9.14 9.14 0 0 0 2.72-10.526l-4.616 4.608v-.004a3.563 3.563 0 0 1-5.043 0 3.57 3.57 0 0 1 0-5.041l4.61-4.615a9.2 9.2 0 0 0-3.437-.667" clip-rule="evenodd"/></g><defs><linearGradient id="b" x1="40" x2="40" y1="0" y2="80" gradientUnits="userSpaceOnUse"><stop stop-color="#e2bc6f"/><stop offset="1" stop-color="#d3a952"/></linearGradient><clipPath id="a"><path fill="#fff" d="M0 0h80v80H0z"/></clipPath></defs></svg>