<svg xmlns="http://www.w3.org/2000/svg" width="80" height="80" fill="none" viewBox="0 0 100 100">
    <g clip-path="url(#a)">
        <path fill="#cda553" stroke="#000" d="M5.5 1.5 2 13.5h80l-4.5-12zM58 74.5 48.5 79 39 74.5v-10l9.5-4.5 9.5 5z" />
        <path fill="#000" fill-rule="evenodd"
            d="M58.147 62.441c.556.191.955.721.955 1.343V74.75c0 .621-.4 1.147-.955 1.342-1.403.526-9.221 3.91-9.912 3.91-.63 0-8.722-3.427-9.981-3.94a1.41 1.41 0 0 1-.886-1.312V63.784c0-.622.4-1.147.955-1.343l9.382-3.806c.36-.148.752-.134 1.086.009l9.36 3.797zm-1.881 11.357v-7.911l-6.615 2.685v7.911zm-16.066 0 6.615 2.685v-7.911L40.2 65.887zm13.716-10.014-5.685-2.307-5.686 2.307 5.686 2.307zm40.216 29.643c.004.256 0 .517 0 .773h3.036v-5.448h-3.036zm-2.78 1.438c.578 2.79 4.01 2.173 5.929 2.173a2.73 2.73 0 0 0 2.719-2.72v-5.679c0-1.33-.982-2.463-2.272-2.68v-7.447a6.2 6.2 0 0 0-1.077-3.554l-8.965-13.486c-.99-1.49-2.58-2.346-4.365-2.346h-5.407l.008-43.746h4.218c.782 0 1.416-.635 1.416-1.417L79.664 1.008a1.42 1.42 0 0 0-1.35-1.004L5.24 0c-.687 0-1.256.487-1.39 1.13L.062 13.55a1.41 1.41 0 0 0 1.351 1.82l4.218.005v68.523c0 .782.634 1.417 1.416 1.417h9.125c.782 0 1.416-.635 1.416-1.417V58.935h6.702V93.44c0 .782.634 1.416 1.416 1.416h4.886c1.494 6.822 11.363 6.895 12.878 0h31.867c1.508 6.865 11.384 6.83 12.879 0h3.14zm-3.14-2.837c-1.507-6.847-11.371-6.847-12.878 0h-3.04l-.113-30.074h11.144c.856 0 1.538.361 2.007 1.074 1.281 1.929 9.069 13.316 9.42 14.436.279.891.144 7.09.144 8.45-1.094 0-1.768-.086-2.688.696-1.286 1.09-.912 3.272-.912 5.418zm-18.746 0H43.462c-1.52-6.895-11.375-6.82-12.878 0h-3.47V85.32h42.243l.105 6.708zm2.71-32.906h2.902l.009-43.742H8.463v67.103h6.294V33.41c0-.782.634-1.416 1.416-1.416h51.204c.782 0 1.416.634 1.416 1.416V52.68c3.992 0 3.388-.318 3.388 6.434zm4.279 5.548h6.263c.778 0 1.472.408 1.876 1.064l4.544 7.382c.93 1.512-.126 3.515-1.877 3.515H76.455c-1.234 0-2.224-1.06-2.224-2.29V66.96c0-1.23.986-2.29 2.224-2.29m5.903 2.837 3.87 6.29h-9.165v-6.29zm-56.66-14.82c-1.755 0-1.416 2.077-1.416 3.42H17.58v-5.713h48.368v2.294l-40.24-.005zm43.643 2.838-42.214-.005v26.967h42.227V55.52zm-29.662 35.26c3.505 3.507-1.811 8.825-5.316 5.327-3.492-3.488 1.815-8.832 5.316-5.326m24.78-3.523c1.867 0 1.867 2.837 0 2.837H49.316c-1.867 0-1.867-2.837 0-2.837zm12.217-5.253c-1.868 0-1.868-2.837 0-2.837h4.704c1.867 0 1.867 2.837 0 2.837zm7.753 8.78c3.492 3.503-1.824 8.82-5.32 5.323-3.502-3.502 1.81-8.824 5.32-5.322m-47.421 4.08c-1.855 0-1.894-2.837.026-2.837 1.855 0 1.894 2.838-.026 2.838m44.746 0c-1.855 0-1.894-2.837.026-2.837 1.854 0 1.893 2.838-.026 2.838M77.258 2.842l2.962 9.71H63.893l-1.533-9.71h14.902zm-17.76 0 1.533 9.71H43.179l.013-9.714h16.319zm-19.15 0v9.71H22.494l1.534-9.71zm-19.177 0-1.533 9.71H3.31l2.962-9.71h14.902zM17.58 34.836h48.368v4.17l-48.36-.004v-4.17zm0 7.008h48.368v5.713l-48.36-.005V41.84z"
            clip-rule="evenodd" />
    </g>
    <defs>
        <clipPath id="a">
            <path fill="#fff" d="M0 0h100v100H0z" />
        </clipPath>
    </defs>
</svg>