<svg xmlns="http://www.w3.org/2000/svg" width="80" height="80" fill="none" viewBox="0 0 100 100">
    <g clip-path="url(#a)">
        <path fill="#cda553"
            d="M76 82h15v17H76zM10 43h13v14H10zM74.5 3l-9 8.5 9 10 1-4.5c8 .8 10.333 9 10.5 13h12v-2C97.2 10.8 82.667 7.167 75.5 7.5zM25.5 97l9-8.5-9-10-1 4.5c-8-.8-10.333-9-10.5-13H2v2c.8 17.2 15.333 20.833 22.5 20.5z" />
        <path fill="#000"
            d="M26.178 77.155a1.667 1.667 0 0 0-2.845 1.178v3.165c-3.798-.773-6.666-4.141-6.666-8.165V70c0-.92-.745-1.666-1.667-1.666H1.667C.745 68.334 0 69.08 0 70c0 13.225 10.322 24.083 23.333 24.945v3.388a1.667 1.667 0 0 0 2.845 1.179l10-10a1.665 1.665 0 0 0 0-2.357zm.489 17.155v-.977c0-.92-.745-1.666-1.667-1.666-11.387 0-20.748-8.829-21.603-20h9.936v1.666C13.333 79.767 18.568 85 25 85c.922 0 1.667-.747 1.667-1.667v-.976l5.976 5.976zM11.667 6.667H8.333V10h3.334zM18.333 6.667H15V10h3.333zM25 6.667h-3.333V10H25zM11.667 15H8.333v3.334h3.334zM18.333 15H15v3.334h3.333zM25 15h-3.333v3.334H25zM11.667 23.334H8.333v3.333h3.334zM18.333 23.334H15v3.333h3.333zM25 23.334h-3.333v3.333H25zM11.667 31.667H8.333V35h3.334zM18.333 31.667H15V35h3.333zM25 31.667h-3.333V35H25zM40 23.334h-3.333v3.333H40zM46.667 23.334h-3.334v3.333h3.334zM53.333 23.334H50v3.333h3.333zM40 31.667h-3.333V35H40zM46.667 31.667h-3.334V35h3.334zM53.333 31.667H50V35h3.333zM40 40h-3.333v3.334H40zM46.667 40h-3.334v3.334h3.334zM53.333 40H50v3.334h3.333zM76.667 5.055V1.667A1.667 1.667 0 0 0 73.822.489l-10 10a1.665 1.665 0 0 0 0 2.356l10 10a1.665 1.665 0 0 0 2.845-1.178v-3.165c3.798.773 6.666 4.142 6.666 8.165V30c0 .92.745 1.667 1.667 1.667h13.333c.922 0 1.667-.747 1.667-1.667 0-13.225-10.322-24.083-23.333-24.945m10 23.279v-1.667C86.667 20.234 81.432 15 75 15c-.922 0-1.667.747-1.667 1.667v.977l-5.976-5.977 5.976-5.977v.977c0 .92.745 1.667 1.667 1.667 11.387 0 20.748 8.828 21.603 20z" />
        <path fill="#000"
            d="M98.333 40h-30c-.921 0-1.666.747-1.666 1.667v15H60V18.334c0-.92-.745-1.667-1.667-1.667h-25v-15c0-.92-.745-1.667-1.666-1.667h-30C.745 0 0 .747 0 1.667v56.666C0 59.253.745 60 1.667 60H40v38.333c0 .92.745 1.667 1.667 1.667h56.666c.922 0 1.667-.747 1.667-1.667V41.667c0-.92-.745-1.667-1.667-1.667M21.667 56.667h-10V43.333h10zm8.333 0h-5v-15c0-.92-.745-1.667-1.667-1.667H10c-.922 0-1.667.747-1.667 1.667v15h-5V3.334H30zM56.667 20v36.667H33.333V20zM43.333 60h23.334v36.667H43.333zm45 36.667H85V83.333h3.333zm-6.666 0h-3.334V83.333h3.334zm15 0h-5v-15c0-.92-.745-1.667-1.667-1.667H76.667c-.922 0-1.667.747-1.667 1.667v15h-5V43.332h26.667z" />
        <path fill="#000"
            d="M91.667 71.667h-3.334V75h3.334zM85 71.667h-3.333V75H85zM78.333 71.667H75V75h3.333zM63.333 80H60v3.333h3.333zM56.667 80h-3.334v3.333h3.334zM50 80h-3.333v3.333H50zM63.333 63.334H46.667v3.333h16.666zM63.333 71.667H46.667V75h16.666zM93.333 63.334h-20v3.333h20zM93.333 55h-20v3.334h20zM93.333 46.667h-20V50h20z" />
    </g>
    <defs>
        <clipPath id="a">
            <path fill="#fff" d="M0 0h100v100H0z" />
        </clipPath>
    </defs>
</svg>