<svg xmlns="http://www.w3.org/2000/svg" width="80" height="80" fill="none" viewBox="0 0 80 80"><g clip-path="url(#a)"><path fill="url(#b)" fill-rule="evenodd" d="M30.948 27.788a4.03 4.03 0 0 0 2.637 2.692 4.11 4.11 0 0 1 2.83 3.887 4.15 4.15 0 0 0 1.706 3.316 4.16 4.16 0 0 0 3.686.603 4.13 4.13 0 0 1 4.585 1.49 4.14 4.14 0 0 0 3.339 1.689 4.15 4.15 0 0 0 3.339-1.69 4.12 4.12 0 0 1 4.581-1.49 4.16 4.16 0 0 0 3.687-.602 4.14 4.14 0 0 0 1.706-3.316 4.09 4.09 0 0 1 2.833-3.887 4.15 4.15 0 0 0 2.057-6.352 4.11 4.11 0 0 1 0-4.809 4.143 4.143 0 0 0-2.057-6.344 4.09 4.09 0 0 1-2.798-3.905 4.13 4.13 0 0 0-1.706-3.316 4.17 4.17 0 0 0-3.687-.613 4.12 4.12 0 0 1-4.599-1.455A4.15 4.15 0 0 0 49.748 2c-1.32 0-2.559.624-3.338 1.686a4.12 4.12 0 0 1-4.585 1.48 4.18 4.18 0 0 0-3.687.613 4.16 4.16 0 0 0-1.706 3.319 4.1 4.1 0 0 1-2.83 3.884 4.152 4.152 0 0 0-2.068 6.344 4.09 4.09 0 0 1 0 4.81 4.03 4.03 0 0 0-.586 3.652M40.234 12.2a13.5 13.5 0 0 1 11.294-3.838 13.49 13.49 0 0 1 9.925 6.61 13.45 13.45 0 0 1 .78 11.887 13.492 13.492 0 0 1-20.672 5.517 13.45 13.45 0 0 1-5.263-10.69 13.37 13.37 0 0 1 3.936-9.486M7.88 51.728c.165.165.256.39.26.621v21.33a.896.896 0 0 1-.9.897H-.118a.9.9 0 0 1-.621-.26.9.9 0 0 1-.26-.638V52.35a.9.9 0 0 1 .26-.62.9.9 0 0 1 .621-.26h7.387a.9.9 0 0 1 .618.26zM64.5 36.18l6.965 10.095a.62.62 0 0 1 0 .697.61.61 0 0 1-.646.245l-6.291-1.479v-.003a.9.9 0 0 0-1.099.627l-1.868 6.212a.6.6 0 0 1-.54.43.61.61 0 0 1-.6-.35l-5.825-12.096a2.42 2.42 0 0 1 2.56-.69 5.874 5.874 0 0 0 7.309-3.688zM28.1 46.948a.62.62 0 0 1 0-.702l6.902-10.067a5.7 5.7 0 0 0 2.103 2.843 5.79 5.79 0 0 0 5.196.845 2.43 2.43 0 0 1 2.57.69l-5.744 12.096a.61.61 0 0 1-.593.35.62.62 0 0 1-.548-.43l-1.867-6.211h-.004a.897.897 0 0 0-1.085-.628l-6.291 1.48v.003a.605.605 0 0 1-.674-.246zm50.043 19.965L46.122 78.218q-.97.353-1.977.575c-.653.14-1.32.21-1.987.206H29.116a9.9 9.9 0 0 1-4.564-1.058c-1.159-.565-2.409-1.248-3.659-1.95-2.696-1.506-5.49-3.042-7.962-3.588-1.088-.26-2.085-.414-3.093-.558V54.796c1.053 0 2.005-.098 2.903-.154 6.057-.34 9.806-.558 14.732 2.306 3.686 2.135 5.122 3.688 9.886 3.688h3.595v.003c2.17-.014 4.29.638 6.074 1.868 1.59 1.122 2.598 2.601 2.598 4.01a2.296 2.296 0 0 1-2.282 2.279h-13.93a.846.846 0 1 0 0 1.69H47.29a3.97 3.97 0 0 0 3.96-3.969q0-.356-.053-.708l20.06-3.975a16.4 16.4 0 0 1 5.618-.333c1.538.26 2.777.996 3.075 2.647a2.345 2.345 0 0 1-1.807 2.765M49.741 33.432c5.61 0 10.438-3.954 11.53-9.446a11.73 11.73 0 0 0-7.032-13.135 11.77 11.77 0 0 0-14.275 4.326 11.73 11.73 0 0 0 1.464 14.82 11.69 11.69 0 0 0 8.313 3.435m-8.77-14.767c.137-.446.534-.761.998-.793l4.873-.357 1.85-4.487a1.138 1.138 0 0 1 2.11 0l1.85 4.487 4.862.357h.004a1.143 1.143 0 0 1 .657 2.012l-3.729 3.152 1.17 4.739-.004-.004c.119.456-.057.94-.44 1.216a1.14 1.14 0 0 1-1.295.021l-4.135-2.565-4.143 2.565a1.14 1.14 0 0 1-1.717-1.237l1.159-4.739-3.746-3.148a1.095 1.095 0 0 1-.324-1.22" clip-rule="evenodd"/></g><defs><linearGradient id="b" x1="39.5" x2="39.5" y1="2" y2="79" gradientUnits="userSpaceOnUse"><stop stop-color="#e2bc6f"/><stop offset="1" stop-color="#d3a952"/></linearGradient><clipPath id="a"><path fill="#fff" d="M0 0h80v80H0z"/></clipPath></defs></svg>